<?xml version="1.0" encoding="UTF-8" standalone="no"?>
<!-- Created with Inkscape (http://www.inkscape.org/) -->

<svg
   width="1024"
   height="1024"
   viewBox="0 0 270.93333 270.93333"
   version="1.1"
   id="svg1"
   inkscape:version="1.3.2 (091e20e, 2023-11-25)"
   sodipodi:docname="icon.svg"
   inkscape:export-filename="icon.png"
   inkscape:export-xdpi="96"
   inkscape:export-ydpi="96"
   xmlns:inkscape="http://www.inkscape.org/namespaces/inkscape"
   xmlns:sodipodi="http://sodipodi.sourceforge.net/DTD/sodipodi-0.dtd"
   xmlns="http://www.w3.org/2000/svg"
   xmlns:svg="http://www.w3.org/2000/svg">
  <sodipodi:namedview
     id="namedview1"
     pagecolor="#ffffff"
     bordercolor="#000000"
     borderopacity="0.25"
     inkscape:showpageshadow="2"
     inkscape:pageopacity="0.0"
     inkscape:pagecheckerboard="0"
     inkscape:deskcolor="#d1d1d1"
     inkscape:document-units="px"
     inkscape:zoom="0.25"
     inkscape:cx="598"
     inkscape:cy="530"
     inkscape:window-width="1856"
     inkscape:window-height="1057"
     inkscape:window-x="0"
     inkscape:window-y="108"
     inkscape:window-maximized="0"
     inkscape:current-layer="layer1"
     showgrid="false">
    <inkscape:grid
       id="grid1"
       units="px"
       originx="0"
       originy="0"
       spacingx="0.26458333"
       spacingy="0.26458333"
       empcolor="#0099e5"
       empopacity="0.30196078"
       color="#0099e5"
       opacity="0.14901961"
       empspacing="5"
       dotted="false"
       gridanglex="30"
       gridanglez="30"
       visible="false" />
  </sodipodi:namedview>
  <defs
     id="defs1" />
  <g
     inkscape:label="Layer 1"
     inkscape:groupmode="layer"
     id="layer1">
    <path
       id="path3"
       style="fill:#83c0dc;fill-opacity:1;stroke:#5596c7;stroke-width:11.0741;stroke-linejoin:round;stroke-opacity:1;paint-order:stroke fill markers"
       inkscape:transform-center-x="-0.20063385"
       inkscape:transform-center-y="1.0004409"
       d="m 135.47556,17.695174 a 117.81584,117.81584 0 0 0 -13.60152,0.972773 L 93.393802,93.42925 18.632499,121.90949 a 117.81584,117.81584 0 0 0 -0.972773,13.60151 117.81584,117.81584 0 0 0 1.519451,18.23936 l 74.214625,28.27206 26.745588,70.20727 a 117.81584,117.81584 0 0 0 15.33617,1.09714 117.81584,117.81584 0 0 0 20.07946,-1.92013 l 26.43195,-69.38428 69.38428,-26.43195 a 117.81584,117.81584 0 0 0 1.92013,-20.07947 117.81584,117.81584 0 0 0 -1.03116,-15.31129 L 181.98697,93.42925 153.68248,19.129731 a 117.81584,117.81584 0 0 0 -18.20692,-1.434557 z" />
    <path
       style="fill:#547b50;fill-opacity:1;stroke:#0b0b0b;stroke-width:7.9374999;stroke-linejoin:round;stroke-dasharray:none;stroke-opacity:1;paint-order:stroke fill markers"
       d="m 79.374996,52.916664 126.999994,63.499996 5.29167,37.04167 -126.999998,58.20833 -5.291666,-31.75 84.666664,-42.33333 v -5.29167 L 84.666662,84.666657 Z"
       id="path2"
       sodipodi:nodetypes="ccccccccc" />
  </g>
</svg>
