<?xml version="1.0" encoding="UTF-8" standalone="no"?>
<!-- Created with Inkscape (http://www.inkscape.org/) -->

<svg
   width="1024"
   height="1024"
   viewBox="0 0 270.93333 270.93333"
   version="1.1"
   id="svg1"
   inkscape:version="1.3.2 (091e20e, 2023-11-25)"
   sodipodi:docname="icon.svg"
   inkscape:export-filename="icon.png"
   inkscape:export-xdpi="96"
   inkscape:export-ydpi="96"
   xmlns:inkscape="http://www.inkscape.org/namespaces/inkscape"
   xmlns:sodipodi="http://sodipodi.sourceforge.net/DTD/sodipodi-0.dtd"
   xmlns="http://www.w3.org/2000/svg"
   xmlns:svg="http://www.w3.org/2000/svg">
  <sodipodi:namedview
     id="namedview1"
     pagecolor="#ffffff"
     bordercolor="#000000"
     borderopacity="0.25"
     inkscape:showpageshadow="2"
     inkscape:pageopacity="0.0"
     inkscape:pagecheckerboard="0"
     inkscape:deskcolor="#d1d1d1"
     inkscape:document-units="px"
     inkscape:zoom="0.35355339"
     inkscape:cx="-731.14841"
     inkscape:cy="618.01133"
     inkscape:window-width="1856"
     inkscape:window-height="1057"
     inkscape:window-x="0"
     inkscape:window-y="108"
     inkscape:window-maximized="0"
     inkscape:current-layer="layer1"
     showgrid="false">
    <inkscape:grid
       id="grid1"
       units="px"
       originx="0"
       originy="0"
       spacingx="0.26458333"
       spacingy="0.26458333"
       empcolor="#0099e5"
       empopacity="0.30196078"
       color="#0099e5"
       opacity="0.14901961"
       empspacing="5"
       dotted="false"
       gridanglex="30"
       gridanglez="30"
       visible="false" />
  </sodipodi:namedview>
  <defs
     id="defs1" />
  <g
     inkscape:label="Layer 1"
     inkscape:groupmode="layer"
     id="layer1">
    <ellipse
       style="fill:#86afc4;fill-opacity:1;stroke:#645a87;stroke-width:10.5833332;stroke-linejoin:round;stroke-dasharray:none;stroke-opacity:1;paint-order:stroke fill markers"
       id="path1"
       cx="135.46666"
       cy="135.46666"
       rx="119.70354"
       ry="119.32936" />
    <path
       id="path3"
       style="fill:#5596b5;fill-opacity:1;stroke:none;stroke-width:10.5833;stroke-linejoin:round;paint-order:stroke fill markers"
       inkscape:transform-center-x="-0.19174335"
       inkscape:transform-center-y="0.95610146"
       d="M 135.46666 22.872505 A 112.59417 112.59417 0 0 0 122.46798 23.802164 L 95.249999 95.249999 L 23.802164 122.46798 A 112.59417 112.59417 0 0 0 22.872505 135.46666 A 112.59417 112.59417 0 0 0 24.324613 152.89764 L 95.249999 179.91666 L 120.8102 247.01231 A 112.59417 112.59417 0 0 0 135.46666 248.06082 A 112.59417 112.59417 0 0 0 154.65619 246.22579 L 179.91666 179.91666 L 246.22579 154.65619 A 112.59417 112.59417 0 0 0 248.06082 135.46666 A 112.59417 112.59417 0 0 0 247.07536 120.83397 L 179.91666 95.249999 L 152.86664 24.243481 A 112.59417 112.59417 0 0 0 135.46666 22.872505 z " />
    <path
       style="fill:#547b50;fill-opacity:1;stroke:#444444;stroke-width:7.9374999;stroke-linejoin:round;stroke-dasharray:none;stroke-opacity:1;paint-order:stroke fill markers"
       d="m 79.374996,52.916664 126.999994,63.499996 5.29167,37.04167 -126.999998,58.20833 -5.291666,-31.75 84.666664,-42.33333 v -5.29167 L 84.666662,84.666657 Z"
       id="path2"
       sodipodi:nodetypes="ccccccccc" />
  </g>
</svg>
